<svg width="12" height="12" viewBox="0 0 12 12" fill="none" xmlns="http://www.w3.org/2000/svg">
<path d="M6 0C9.31371 0 12 2.68629 12 6C12 9.31371 9.31371 12 6 12C2.68629 12 0 9.31371 0 6C0 2.68629 2.68629 0 6 0ZM8.6875 3.97949C8.4924 3.78439 8.17577 3.78472 7.98047 3.97949L5 6.95898L4.02051 5.97949C3.82535 5.78434 3.50876 5.78456 3.31348 5.97949C3.11821 6.17475 3.11821 6.49126 3.31348 6.68652L4.43457 7.80762C4.47089 7.84393 4.52627 7.90026 4.58105 7.94434C4.6432 7.99431 4.74847 8.06542 4.89648 8.08887C4.96534 8.0997 5.03565 8.09976 5.10449 8.08887C5.25244 8.06534 5.35785 7.99427 5.41992 7.94434C5.47457 7.90031 5.53019 7.84384 5.56641 7.80762L8.6875 4.68652C8.88222 4.49128 8.88244 4.1746 8.6875 3.97949Z" fill="#07070A"/>
</svg>
