<svg width="141" height="32" viewBox="0 0 141 32" fill="none" xmlns="http://www.w3.org/2000/svg">
<g clip-path="url(#clip0_23_76)">
<path fill-rule="evenodd" clip-rule="evenodd" d="M2.22043 3.70953C0.539795 6.04315 0.539795 9.3621 0.539795 16C0.539795 22.6379 0.539795 25.9569 2.22043 28.2904C2.78366 29.0725 3.47003 29.7582 4.25283 30.321C6.58864 32 9.91072 32 16.5549 32C23.199 32 26.5211 32 28.8568 30.321C29.6397 29.7582 30.326 29.0725 30.8894 28.2904C32.57 25.9569 32.57 22.6379 32.57 16C32.57 9.3621 32.57 6.04315 30.8894 3.70953C30.326 2.92748 29.6397 2.24175 28.8568 1.67905C26.5211 0 23.199 0 16.5549 0C9.91072 0 6.58864 0 4.25283 1.67905C3.47003 2.24175 2.78366 2.92748 2.22043 3.70953ZM23.1038 11.6283C23.9692 12.9223 24.4312 14.4437 24.4312 16H16.5549V23.8689C14.9971 23.8689 13.4743 23.4073 12.1791 22.5427C10.8838 21.6781 9.87428 20.4491 9.27815 19.0113C8.68202 17.5734 8.52605 15.9913 8.82994 14.4649C9.13386 12.9385 9.88399 11.5364 10.9855 10.4359C12.087 9.3354 13.4905 8.58597 15.0183 8.28233C16.5461 7.97873 18.1298 8.13456 19.569 8.73012C21.0082 9.32569 22.2383 10.3343 23.1038 11.6283Z" fill="#07070A"/>
<path d="M45.703 23.0823C44.734 23.0823 43.8314 22.9076 42.9957 22.5581C42.1718 22.2085 41.4512 21.7205 40.8334 21.0938C40.2156 20.4671 39.7312 19.7319 39.38 18.8883C39.0408 18.0447 38.8712 17.1227 38.8712 16.1224C38.8712 15.1221 39.0408 14.2002 39.38 13.3566C39.7192 12.5009 40.1975 11.7658 40.8153 11.1511C41.433 10.5244 42.1537 10.0424 42.9776 9.70491C43.8133 9.3554 44.7217 9.18066 45.703 9.18066C46.6842 9.18066 47.5624 9.34337 48.3374 9.66877C49.1247 9.99415 49.7911 10.428 50.3361 10.9703C50.8812 11.5127 51.2689 12.1152 51.4989 12.7781L49.0098 13.9712C48.7798 13.3204 48.3739 12.7841 47.7923 12.3623C47.2232 11.9284 46.5266 11.7115 45.703 11.7115C44.9033 11.7115 44.201 11.8983 43.5953 12.2719C42.9897 12.6455 42.5171 13.1637 42.1781 13.8266C41.851 14.4774 41.6874 15.2427 41.6874 16.1224C41.6874 17.0022 41.851 17.7735 42.1781 18.4364C42.5171 19.0992 42.9897 19.6174 43.5953 19.991C44.201 20.3646 44.9033 20.5514 45.703 20.5514C46.5266 20.5514 47.2232 20.3405 47.7923 19.9187C48.3739 19.4849 48.7798 18.9426 49.0098 18.2917L51.4989 19.4849C51.2689 20.1477 50.8812 20.7503 50.3361 21.2926C49.7911 21.835 49.1247 22.2688 48.3374 22.5942C47.5624 22.9196 46.6842 23.0823 45.703 23.0823Z" fill="#07070A"/>
<path d="M57.853 23.0816C56.8716 23.0816 55.9753 22.8586 55.1638 22.4127C54.3643 21.9668 53.7224 21.3582 53.2378 20.5868C52.7655 19.8035 52.5292 18.9177 52.5292 17.9294C52.5292 16.9292 52.7655 16.0434 53.2378 15.2721C53.7224 14.5008 54.3643 13.8921 55.1638 13.4462C55.9753 13.0003 56.8716 12.7773 57.853 12.7773C58.8341 12.7773 59.7244 13.0003 60.5239 13.4462C61.3233 13.8921 61.9592 14.5008 62.4317 15.2721C62.9161 16.0434 63.1585 16.9292 63.1585 17.9294C63.1585 18.9177 62.9161 19.8035 62.4317 20.5868C61.9592 21.3582 61.3233 21.9668 60.5239 22.4127C59.7244 22.8586 58.8341 23.0816 57.853 23.0816ZM57.853 20.6411C58.3495 20.6411 58.7795 20.5266 59.1429 20.2976C59.5183 20.0686 59.8092 19.7493 60.015 19.3395C60.2332 18.9297 60.3422 18.4597 60.3422 17.9294C60.3422 17.3992 60.2332 16.9352 60.015 16.5375C59.8092 16.1277 59.5183 15.8083 59.1429 15.5794C58.7795 15.3383 58.3495 15.2178 57.853 15.2178C57.3563 15.2178 56.9202 15.3383 56.5448 15.5794C56.1691 15.8083 55.8724 16.1277 55.6545 16.5375C55.4484 16.9352 55.3455 17.3992 55.3455 17.9294C55.3455 18.4597 55.4484 18.9297 55.6545 19.3395C55.8724 19.7493 56.1691 20.0686 56.5448 20.2976C56.9202 20.5266 57.3563 20.6411 57.853 20.6411Z" fill="#07070A"/>
<path d="M64.7637 22.8646V12.9943H67.3075V14.9467L67.1623 14.5128C67.3923 13.9223 67.7617 13.4884 68.2705 13.2112C68.7914 12.922 69.3971 12.7773 70.0876 12.7773C70.8384 12.7773 71.4927 12.934 72.0498 13.2474C72.6193 13.5607 73.0614 14.0006 73.3762 14.567C73.6912 15.1214 73.8485 15.7722 73.8485 16.5194V22.8646H71.1233V17.0979C71.1233 16.7122 71.0445 16.3808 70.887 16.1036C70.7416 15.8264 70.5297 15.6095 70.2511 15.4528C69.9846 15.2962 69.6696 15.2178 69.3062 15.2178C68.955 15.2178 68.6399 15.2962 68.3613 15.4528C68.0828 15.6095 67.8649 15.8264 67.7074 16.1036C67.5619 16.3808 67.4892 16.7122 67.4892 17.0979V22.8646H64.7637Z" fill="#07070A"/>
<path d="M78.5703 22.8655L74.6639 12.9951H77.6073L80.3146 20.4611H79.1881L81.8954 12.9951H84.8388L80.9324 22.8655H78.5703Z" fill="#07070A"/>
<path d="M90.6398 23.0816C89.5859 23.0816 88.6715 22.8526 87.8962 22.3946C87.1209 21.9246 86.5215 21.2979 86.0975 20.5146C85.6735 19.7312 85.4614 18.8635 85.4614 17.9114C85.4614 16.9231 85.6795 16.0434 86.1156 15.2721C86.5638 14.5008 87.1634 13.8921 87.9143 13.4462C88.6654 13.0003 89.5134 12.7773 90.4581 12.7773C91.2454 12.7773 91.942 12.9039 92.5476 13.157C93.1533 13.398 93.6621 13.7415 94.0738 14.1874C94.4978 14.6333 94.8189 15.1515 95.0368 15.7421C95.255 16.3206 95.3639 16.9533 95.3639 17.6402C95.3639 17.833 95.3519 18.0259 95.3277 18.2187C95.3154 18.3995 95.2852 18.5561 95.2366 18.6887H87.8053V16.7002H93.6923L92.4022 17.6402C92.5235 17.122 92.5174 16.664 92.3841 16.2663C92.251 15.8566 92.0147 15.5372 91.6755 15.3082C91.3484 15.0672 90.9427 14.9467 90.4581 14.9467C89.9858 14.9467 89.5799 15.0611 89.2407 15.2901C88.9017 15.5191 88.6473 15.8566 88.4777 16.3025C88.3081 16.7484 88.2414 17.2907 88.2777 17.9294C88.2293 18.4838 88.296 18.9719 88.4777 19.3937C88.6594 19.8155 88.9379 20.147 89.3134 20.388C89.6891 20.617 90.1433 20.7315 90.6762 20.7315C91.1606 20.7315 91.5726 20.635 91.9118 20.4422C92.2631 20.2494 92.5356 19.9843 92.7293 19.6468L94.9097 20.6772C94.716 21.1593 94.407 21.5811 93.983 21.9427C93.5713 22.3042 93.0806 22.5874 92.5114 22.7923C91.942 22.9851 91.3182 23.0816 90.6398 23.0816Z" fill="#07070A"/>
<path d="M96.9688 22.8656V12.9952H99.5126V15.3634L99.3309 15.0199C99.5488 14.1883 99.9061 13.6279 100.403 13.3387C100.912 13.0374 101.511 12.8867 102.202 12.8867H102.783V15.2368H101.929C101.263 15.2368 100.724 15.4417 100.312 15.8514C99.9001 16.2492 99.6943 16.8156 99.6943 17.5507V22.8656H96.9688Z" fill="#07070A"/>
<path d="M109.111 22.9734C107.912 22.9734 106.979 22.654 106.313 22.0153C105.659 21.3644 105.332 20.4606 105.332 19.3036V15.3446H103.66V12.9946H103.751C104.26 12.9946 104.647 12.868 104.914 12.6149C105.192 12.3618 105.332 11.9822 105.332 11.476V10.7529H108.057V12.9946H110.383V15.3446H108.057V19.1228C108.057 19.4603 108.118 19.7435 108.239 19.9725C108.36 20.1894 108.548 20.3521 108.802 20.4606C109.057 20.569 109.372 20.6233 109.747 20.6233C109.832 20.6233 109.929 20.6172 110.038 20.6052C110.147 20.5931 110.262 20.5811 110.383 20.569V22.8649C110.201 22.889 109.995 22.9131 109.765 22.9372C109.535 22.9613 109.317 22.9734 109.111 22.9734Z" fill="#07070A"/>
<path d="M112.18 22.8653V9.39746H114.996V16.1404L114.215 15.8692L119.629 9.39746H123.154L117.794 15.8331L117.958 13.8445L123.263 22.8653H119.975L116.668 17.1708L114.996 19.1774V22.8653H112.18Z" fill="#07070A"/>
<path d="M124.454 22.8653V12.9949H127.179V22.8653H124.454ZM124.454 12.1091V9.39746H127.179V12.1091H124.454Z" fill="#07070A"/>
<path d="M133.952 22.9734C132.753 22.9734 131.82 22.654 131.154 22.0153C130.5 21.3644 130.173 20.4606 130.173 19.3036V15.3446H128.502V12.9946H128.592C129.101 12.9946 129.489 12.868 129.755 12.6149C130.034 12.3618 130.173 11.9822 130.173 11.476V10.7529H132.899V12.9946H135.224V15.3446H132.899V19.1228C132.899 19.4603 132.959 19.7435 133.08 19.9725C133.201 20.1894 133.389 20.3521 133.643 20.4606C133.898 20.569 134.213 20.6233 134.588 20.6233C134.673 20.6233 134.77 20.6172 134.879 20.6052C134.988 20.5931 135.103 20.5811 135.224 20.569V22.8649C135.043 22.889 134.837 22.9131 134.606 22.9372C134.376 22.9613 134.158 22.9734 133.952 22.9734Z" fill="#07070A"/>
<path d="M136.976 11.9246V9.05859H138.074C138.271 9.05859 138.446 9.09322 138.597 9.16246C138.752 9.23171 138.872 9.33432 138.959 9.47024C139.047 9.60616 139.09 9.77413 139.09 9.97419C139.09 10.1691 139.045 10.3358 138.956 10.4743C138.866 10.6102 138.745 10.7128 138.593 10.7821L139.248 11.9246H138.578L137.87 10.659L138.255 10.8859H137.573V11.9246H136.976ZM137.573 10.3666H138.078C138.162 10.3666 138.235 10.3499 138.297 10.3166C138.359 10.2832 138.406 10.2371 138.44 10.1781C138.476 10.1191 138.493 10.0511 138.493 9.97419C138.493 9.89469 138.476 9.82544 138.44 9.76645C138.406 9.70746 138.359 9.6613 138.297 9.62796C138.235 9.59462 138.162 9.57794 138.078 9.57794H137.573V10.3666Z" fill="#07070A"/>
<path fill-rule="evenodd" clip-rule="evenodd" d="M138.112 8.04883C136.762 8.04883 135.667 9.14255 135.667 10.4917C135.667 11.8409 136.762 12.9346 138.112 12.9346C139.463 12.9346 140.557 11.8409 140.557 10.4917C140.557 9.14255 139.463 8.04883 138.112 8.04883ZM135.166 10.4917C135.166 8.86641 136.485 7.54883 138.112 7.54883C139.739 7.54883 141.058 8.86641 141.058 10.4917C141.058 12.117 139.739 13.4346 138.112 13.4346C136.485 13.4346 135.166 12.117 135.166 10.4917Z" fill="#07070A"/>
</g>
<defs>
<clipPath id="clip0_23_76">
<rect width="140.46" height="32" fill="white" transform="translate(0.539795)"/>
</clipPath>
</defs>
</svg>
