<svg width="141" height="32" viewBox="0 0 141 32" fill="none" xmlns="http://www.w3.org/2000/svg">
<g clip-path="url(#clip0_1_732)">
<path fill-rule="evenodd" clip-rule="evenodd" d="M1.80783 3.70953C0.127197 6.04315 0.127197 9.3621 0.127197 16C0.127197 22.6379 0.127197 25.9569 1.80783 28.2904C2.37107 29.0725 3.05743 29.7582 3.84023 30.321C6.17604 32 9.49812 32 16.1423 32C22.7864 32 26.1085 32 28.4442 30.321C29.2271 29.7582 29.9134 29.0725 30.4768 28.2904C32.1574 25.9569 32.1574 22.6379 32.1574 16C32.1574 9.3621 32.1574 6.04315 30.4768 3.70953C29.9134 2.92748 29.2271 2.24175 28.4442 1.67905C26.1085 0 22.7864 0 16.1423 0C9.49812 0 6.17604 0 3.84023 1.67905C3.05743 2.24175 2.37107 2.92748 1.80783 3.70953ZM22.6912 11.6283C23.5566 12.9223 24.0186 14.4437 24.0186 16H16.1423V23.8689C14.5845 23.8689 13.0617 23.4073 11.7665 22.5427C10.4712 21.6781 9.46168 20.4491 8.86555 19.0113C8.26942 17.5734 8.11345 15.9913 8.41734 14.4649C8.72126 12.9385 9.4714 11.5364 10.5729 10.4359C11.6744 9.3354 13.0779 8.58597 14.6057 8.28233C16.1335 7.97873 17.7172 8.13456 19.1564 8.73012C20.5956 9.32569 21.8257 10.3343 22.6912 11.6283Z" fill="#FAD007"/>
<path d="M45.2903 23.0818C44.3212 23.0818 43.4186 22.9071 42.5829 22.5576C41.7591 22.2081 41.0384 21.72 40.4206 21.0933C39.8029 20.4666 39.3185 19.7314 38.9672 18.8878C38.628 18.0442 38.4584 17.1222 38.4584 16.1219C38.4584 15.1217 38.628 14.1997 38.9672 13.3561C39.3064 12.5004 39.7847 11.7653 40.4025 11.1506C41.0203 10.5239 41.7409 10.0419 42.5648 9.70442C43.4005 9.35492 44.3089 9.18018 45.2903 9.18018C46.2714 9.18018 47.1496 9.34288 47.9246 9.66828C48.712 9.99366 49.3783 10.4275 49.9233 10.9698C50.4684 11.5122 50.8562 12.1148 51.0861 12.7776L48.597 13.9707C48.367 13.3199 47.9611 12.7836 47.3796 12.3618C46.8104 11.928 46.1138 11.711 45.2903 11.711C44.4905 11.711 43.7882 11.8978 43.1826 12.2714C42.5769 12.645 42.1043 13.1633 41.7654 13.8261C41.4382 14.4769 41.2747 15.2422 41.2747 16.1219C41.2747 17.0017 41.4382 17.773 41.7654 18.4359C42.1043 19.0987 42.5769 19.6169 43.1826 19.9906C43.7882 20.3641 44.4905 20.551 45.2903 20.551C46.1138 20.551 46.8104 20.34 47.3796 19.9182C47.9611 19.4844 48.367 18.9421 48.597 18.2913L51.0861 19.4844C50.8562 20.1472 50.4684 20.7498 49.9233 21.2921C49.3783 21.8345 48.712 22.2683 47.9246 22.5937C47.1496 22.9191 46.2714 23.0818 45.2903 23.0818Z" fill="#FAD007"/>
<path d="M57.4402 23.082C56.4588 23.082 55.5625 22.8591 54.7509 22.4132C53.9515 21.9673 53.3096 21.3587 52.8249 20.5873C52.3526 19.804 52.1163 18.9182 52.1163 17.9299C52.1163 16.9296 52.3526 16.0439 52.8249 15.2725C53.3096 14.5012 53.9515 13.8926 54.7509 13.4467C55.5625 13.0008 56.4588 12.7778 57.4402 12.7778C58.4213 12.7778 59.3116 13.0008 60.111 13.4467C60.9105 13.8926 61.5463 14.5012 62.0189 15.2725C62.5033 16.0439 62.7456 16.9296 62.7456 17.9299C62.7456 18.9182 62.5033 19.804 62.0189 20.5873C61.5463 21.3587 60.9105 21.9673 60.111 22.4132C59.3116 22.8591 58.4213 23.082 57.4402 23.082ZM57.4402 20.6416C57.9366 20.6416 58.3667 20.5271 58.73 20.2981C59.1055 20.0691 59.3964 19.7497 59.6022 19.34C59.8204 18.9302 59.9293 18.4602 59.9293 17.9299C59.9293 17.3997 59.8204 16.9357 59.6022 16.538C59.3964 16.1282 59.1055 15.8088 58.73 15.5799C58.3667 15.3388 57.9366 15.2183 57.4402 15.2183C56.9434 15.2183 56.5074 15.3388 56.1319 15.5799C55.7562 15.8088 55.4595 16.1282 55.2416 16.538C55.0355 16.9357 54.9326 17.3997 54.9326 17.9299C54.9326 18.4602 55.0355 18.9302 55.2416 19.34C55.4595 19.7497 55.7562 20.0691 56.1319 20.2981C56.5074 20.5271 56.9434 20.6416 57.4402 20.6416Z" fill="#FAD007"/>
<path d="M64.3511 22.8651V12.9948H66.8948V14.9471L66.7497 14.5133C66.9796 13.9228 67.349 13.4889 67.8579 13.2117C68.3787 12.9225 68.9844 12.7778 69.6749 12.7778C70.4258 12.7778 71.08 12.9345 71.6371 13.2479C72.2066 13.5612 72.6487 14.0011 72.9635 14.5675C73.2786 15.1219 73.4358 15.7727 73.4358 16.5199V22.8651H70.7106V17.0984C70.7106 16.7127 70.6319 16.3813 70.4744 16.1041C70.3289 15.8269 70.117 15.61 69.8385 15.4533C69.572 15.2967 69.2569 15.2183 68.8936 15.2183C68.5423 15.2183 68.2272 15.2967 67.9487 15.4533C67.6701 15.61 67.4522 15.8269 67.2947 16.1041C67.1493 16.3813 67.0765 16.7127 67.0765 17.0984V22.8651H64.3511Z" fill="#FAD007"/>
<path d="M78.1577 22.865L74.2513 12.9946H77.1947L79.902 20.4606H78.7755L81.4828 12.9946H84.4262L80.5198 22.865H78.1577Z" fill="#FAD007"/>
<path d="M90.227 23.082C89.1731 23.082 88.2587 22.8531 87.4834 22.3951C86.7081 21.9251 86.1087 21.2984 85.6847 20.515C85.2607 19.7317 85.0486 18.8639 85.0486 17.9119C85.0486 16.9236 85.2668 16.0439 85.7028 15.2725C86.151 14.5012 86.7506 13.8926 87.5015 13.4467C88.2526 13.0008 89.1007 12.7778 90.0453 12.7778C90.8327 12.7778 91.5292 12.9044 92.1349 13.1575C92.7405 13.3985 93.2494 13.742 93.661 14.1879C94.085 14.6338 94.4061 15.152 94.624 15.7426C94.8422 16.321 94.9512 16.9538 94.9512 17.6407C94.9512 17.8335 94.9391 18.0264 94.9149 18.2192C94.9026 18.3999 94.8724 18.5566 94.8238 18.6892H87.3926V16.7007H93.2795L91.9894 17.6407C92.1107 17.1225 92.1047 16.6645 91.9713 16.2668C91.8382 15.857 91.6019 15.5377 91.2627 15.3087C90.9356 15.0677 90.5299 14.9471 90.0453 14.9471C89.573 14.9471 89.1671 15.0616 88.8279 15.2906C88.4889 15.5196 88.2345 15.857 88.0649 16.3029C87.8953 16.7489 87.8286 17.2912 87.8649 17.9299C87.8166 18.4843 87.8832 18.9724 88.0649 19.3942C88.2466 19.816 88.5252 20.1475 88.9006 20.3885C89.2763 20.6175 89.7305 20.732 90.2635 20.732C90.7479 20.732 91.1598 20.6355 91.499 20.4427C91.8503 20.2499 92.1228 19.9848 92.3165 19.6473L94.497 20.6777C94.3032 21.1598 93.9942 21.5816 93.5702 21.9432C93.1585 22.3047 92.6678 22.5879 92.0986 22.7928C91.5292 22.9856 90.9054 23.082 90.227 23.082Z" fill="#FAD007"/>
<path d="M96.5562 22.8651V12.9947H99.0999V15.3629L98.9182 15.0194C99.1362 14.1878 99.4935 13.6274 99.9902 13.3382C100.499 13.0369 101.098 12.8862 101.789 12.8862H102.37V15.2363H101.516C100.85 15.2363 100.311 15.4412 99.8994 15.851C99.4874 16.2487 99.2816 16.8151 99.2816 17.5503V22.8651H96.5562Z" fill="#FAD007"/>
<path d="M108.698 22.9734C107.499 22.9734 106.566 22.654 105.9 22.0153C105.246 21.3644 104.919 20.4606 104.919 19.3036V15.3446H103.248V12.9946H103.338C103.847 12.9946 104.235 12.868 104.501 12.6149C104.78 12.3618 104.919 11.9822 104.919 11.476V10.7529H107.645V12.9946H109.97V15.3446H107.645V19.1228C107.645 19.4603 107.705 19.7435 107.826 19.9725C107.947 20.1894 108.135 20.3521 108.389 20.4606C108.644 20.569 108.959 20.6233 109.334 20.6233C109.419 20.6233 109.516 20.6172 109.625 20.6052C109.734 20.5931 109.849 20.5811 109.97 20.569V22.8649C109.789 22.889 109.583 22.9131 109.352 22.9372C109.122 22.9613 108.904 22.9734 108.698 22.9734Z" fill="#FAD007"/>
<path d="M111.767 22.8653V9.39746H114.583V16.1404L113.802 15.8692L119.217 9.39746H122.742L117.382 15.8331L117.545 13.8445L122.851 22.8653H119.562L116.255 17.1708L114.583 19.1774V22.8653H111.767Z" fill="#FAD007"/>
<path d="M124.041 22.8653V12.9949H126.767V22.8653H124.041ZM124.041 12.1091V9.39746H126.767V12.1091H124.041Z" fill="#FAD007"/>
<path d="M133.54 22.9734C132.34 22.9734 131.408 22.654 130.741 22.0153C130.087 21.3644 129.76 20.4606 129.76 19.3036V15.3446H128.089V12.9946H128.18C128.688 12.9946 129.076 12.868 129.342 12.6149C129.621 12.3618 129.76 11.9822 129.76 11.476V10.7529H132.486V12.9946H134.811V15.3446H132.486V19.1228C132.486 19.4603 132.546 19.7435 132.667 19.9725C132.789 20.1894 132.976 20.3521 133.231 20.4606C133.485 20.569 133.8 20.6233 134.176 20.6233C134.26 20.6233 134.357 20.6172 134.466 20.6052C134.575 20.5931 134.69 20.5811 134.811 20.569V22.8649C134.63 22.889 134.424 22.9131 134.194 22.9372C133.963 22.9613 133.745 22.9734 133.54 22.9734Z" fill="#FAD007"/>
<path d="M136.563 11.9246V9.05859H137.661C137.858 9.05859 138.033 9.09322 138.185 9.16246C138.339 9.23171 138.459 9.33432 138.547 9.47024C138.634 9.60616 138.677 9.77413 138.677 9.97419C138.677 10.1691 138.632 10.3358 138.543 10.4743C138.453 10.6102 138.332 10.7128 138.181 10.7821L138.835 11.9246H138.165L137.457 10.659L137.842 10.8859H137.16V11.9246H136.563ZM137.16 10.3666H137.665C137.75 10.3666 137.823 10.3499 137.884 10.3166C137.946 10.2832 137.993 10.2371 138.027 10.1781C138.063 10.1191 138.081 10.0511 138.081 9.97419C138.081 9.89469 138.063 9.82544 138.027 9.76645C137.993 9.70746 137.946 9.6613 137.884 9.62796C137.823 9.59462 137.75 9.57794 137.665 9.57794H137.16V10.3666Z" fill="#FAD007"/>
<path fill-rule="evenodd" clip-rule="evenodd" d="M137.699 8.04883C136.349 8.04883 135.254 9.14255 135.254 10.4917C135.254 11.8409 136.349 12.9346 137.699 12.9346C139.05 12.9346 140.145 11.8409 140.145 10.4917C140.145 9.14255 139.05 8.04883 137.699 8.04883ZM134.754 10.4917C134.754 8.86641 136.072 7.54883 137.699 7.54883C139.326 7.54883 140.645 8.86641 140.645 10.4917C140.645 12.117 139.326 13.4346 137.699 13.4346C136.072 13.4346 134.754 12.117 134.754 10.4917Z" fill="#FAD007"/>
</g>
<defs>
<clipPath id="clip0_1_732">
<rect width="140.46" height="32" fill="white" transform="translate(0.127197)"/>
</clipPath>
</defs>
</svg>
