<svg width="138" height="32" viewBox="0 0 138 32" fill="none" xmlns="http://www.w3.org/2000/svg">
<path d="M16.7663 2L17.1425 12.6611L19.8816 2.35101L17.876 12.8285L22.8407 3.38644L18.5539 13.155L25.4952 5.05436L19.1422 13.6241L27.7119 7.27114L19.6113 14.2124L29.3799 9.92564L19.9378 14.8903L30.4153 12.8847L20.1052 15.6238L30.7663 16L20.1052 16.3762L30.4153 19.1153L19.9378 17.1097L29.3799 22.0744L19.6113 17.7876L27.7119 24.7289L19.1422 18.3759L25.4952 26.9456L18.5539 18.845L22.8407 28.6136L17.876 19.1715L19.8816 29.649L17.1425 19.3389L16.7663 30L16.3901 19.3389L13.651 29.649L15.6566 19.1715L10.6919 28.6136L14.9787 18.845L8.03744 26.9456L14.3904 18.3759L5.82066 24.7289L13.9213 17.7876L4.15273 22.0744L13.5948 17.1097L3.11731 19.1153L13.4274 16.3762L2.7663 16L13.4274 15.6238L3.11731 12.8847L13.5948 14.8903L4.15273 9.92564L13.9213 14.2124L5.82066 7.27114L14.3904 13.6241L8.03744 5.05436L14.9787 13.155L10.6919 3.38644L15.6566 12.8285L13.651 2.35101L16.3901 12.6611L16.7663 2Z" fill="#FAD007"/>
<path d="M40.5849 20.8807C39.7632 20.8807 39.0099 20.6607 38.3253 20.2207C37.6543 19.7674 37.1201 19.154 36.7229 18.3807C36.3257 17.594 36.1271 16.7007 36.1271 15.7007C36.1271 14.7007 36.3189 13.8073 36.7024 13.0207C37.0859 12.234 37.6129 11.614 38.2842 11.1607C38.9552 10.7074 39.7222 10.4807 40.5849 10.4807C41.3519 10.4807 41.975 10.6207 42.4542 10.9007C42.9474 11.1673 43.3241 11.5407 43.5842 12.0207C43.8443 12.5007 44.0224 13.054 44.1184 13.6807C44.2278 14.3073 44.2825 14.9807 44.2825 15.7007C44.2825 16.2073 44.2278 16.7607 44.1184 17.3607C44.0087 17.9473 43.817 18.514 43.5432 19.0607C43.2831 19.594 42.9133 20.034 42.4337 20.3807C41.9545 20.714 41.3382 20.8807 40.5849 20.8807ZM40.9957 19.3607C41.6944 19.3607 42.2693 19.194 42.7215 18.8607C43.187 18.5273 43.5295 18.0873 43.7486 17.5407C43.9677 16.9807 44.0771 16.3673 44.0771 15.7007C44.0771 14.9673 43.9609 14.3273 43.7281 13.7807C43.509 13.2207 43.1665 12.7874 42.701 12.4807C42.2488 12.1607 41.6807 12.0007 40.9957 12.0007C39.9686 12.0007 39.1743 12.354 38.6127 13.0607C38.0515 13.754 37.7705 14.634 37.7705 15.7007C37.7705 16.4073 37.9076 17.0407 38.1814 17.6007C38.4692 18.1473 38.8527 18.5807 39.3319 18.9007C39.8247 19.2073 40.3795 19.3607 40.9957 19.3607ZM44.0771 6.68066H45.7208V20.6807H44.221C44.1936 20.3873 44.1595 20.0407 44.1184 19.6407C44.0911 19.2407 44.0771 18.9207 44.0771 18.6807V6.68066Z" fill="#FAD007"/>
<path d="M53.157 20.8807C52.2803 20.8807 51.4586 20.674 50.6916 20.2607C49.9249 19.8473 49.3015 19.254 48.8223 18.4807C48.3567 17.694 48.124 16.7674 48.124 15.7007C48.124 14.634 48.3567 13.714 48.8223 12.9407C49.3015 12.154 49.9249 11.5474 50.6916 11.1207C51.4586 10.694 52.2803 10.4807 53.157 10.4807C54.0334 10.4807 54.8482 10.694 55.6016 11.1207C56.3686 11.5474 56.9848 12.154 57.4503 12.9407C57.9159 13.714 58.1486 14.634 58.1486 15.7007C58.1486 16.7674 57.9159 17.694 57.4503 18.4807C56.9848 19.254 56.3686 19.8473 55.6016 20.2607C54.8482 20.674 54.0334 20.8807 53.157 20.8807ZM53.157 19.3807C53.7319 19.3807 54.273 19.2407 54.7799 18.9607C55.2864 18.6807 55.6973 18.2673 56.0124 17.7207C56.3409 17.1607 56.5053 16.4873 56.5053 15.7007C56.5053 14.914 56.3409 14.2473 56.0124 13.7007C55.6973 13.1407 55.2864 12.714 54.7799 12.4207C54.273 12.1273 53.7319 11.9807 53.157 11.9807C52.5817 11.9807 52.0338 12.1273 51.5133 12.4207C51.0067 12.7007 50.589 13.1207 50.2602 13.6807C49.9318 14.2273 49.7674 14.9007 49.7674 15.7007C49.7674 16.4873 49.9249 17.1607 50.2397 17.7207C50.5685 18.2673 50.9931 18.6807 51.5133 18.9607C52.0338 19.2407 52.5817 19.3807 53.157 19.3807Z" fill="#FAD007"/>
<path d="M60.2345 10.6807H61.8779V20.6807H60.2345V10.6807ZM65.1646 12.1807C64.4664 12.1807 63.8774 12.354 63.3979 12.7007C62.9323 13.034 62.5625 13.4473 62.2887 13.9407C62.0283 14.4207 61.8574 14.8873 61.775 15.3407L61.7545 14.1807C61.7545 14.0607 61.7818 13.8607 61.8369 13.5807C61.8916 13.3007 61.9941 12.9873 62.1448 12.6407C62.2956 12.2807 62.4942 11.9407 62.7406 11.6207C63.0007 11.2873 63.3295 11.014 63.7267 10.8007C64.1239 10.5874 64.6031 10.4807 65.1646 10.4807V12.1807Z" fill="#FAD007"/>
<path d="M70.8977 20.8807C70.0897 20.8807 69.3432 20.6607 68.6586 20.2207C67.9877 19.7674 67.4466 19.154 67.0357 18.3807C66.6386 17.594 66.44 16.7007 66.44 15.7007C66.44 14.7007 66.6454 13.8073 67.0562 13.0207C67.4671 12.234 68.0218 11.614 68.7201 11.1607C69.4325 10.7074 70.2268 10.4807 71.1032 10.4807C72.0619 10.4807 72.7876 10.7207 73.2808 11.2007C73.7873 11.6674 74.1298 12.294 74.3079 13.0807C74.4996 13.8673 74.5953 14.7407 74.5953 15.7007C74.5953 16.2073 74.5407 16.7607 74.4313 17.3607C74.3216 17.9473 74.1298 18.514 73.856 19.0607C73.5956 19.594 73.2261 20.034 72.7465 20.3807C72.2673 20.714 71.6511 20.8807 70.8977 20.8807ZM71.3086 19.3607C72.0069 19.3607 72.5821 19.194 73.0344 18.8607C73.4999 18.5273 73.8424 18.0873 74.0615 17.5407C74.2806 16.9807 74.3899 16.3673 74.3899 15.7007C74.3899 14.9673 74.2737 14.3273 74.041 13.7807C73.8215 13.2207 73.4794 12.7874 73.0135 12.4807C72.5616 12.1607 71.9932 12.0007 71.3086 12.0007C70.2815 12.0007 69.4871 12.354 68.9256 13.0607C68.364 13.754 68.0834 14.634 68.0834 15.7007C68.0834 16.4073 68.2204 17.0407 68.4942 17.6007C68.7816 18.1473 69.1652 18.5807 69.6447 18.9007C70.1376 19.2073 70.6923 19.3607 71.3086 19.3607ZM74.3899 10.6807H76.0333V20.6807H74.5338C74.5338 20.6807 74.5201 20.5607 74.4928 20.3207C74.4791 20.0807 74.4586 19.8007 74.4313 19.4807C74.4036 19.1607 74.3899 18.894 74.3899 18.6807V10.6807Z" fill="#FAD007"/>
<path d="M82.5935 20.8807C81.7718 20.8807 81.0185 20.6607 80.3338 20.2207C79.6629 19.7674 79.1287 19.154 78.7315 18.3807C78.3343 17.594 78.1357 16.7007 78.1357 15.7007C78.1357 14.7007 78.3275 13.8073 78.711 13.0207C79.0945 12.234 79.6215 11.614 80.2928 11.1607C80.9638 10.7074 81.7308 10.4807 82.5935 10.4807C83.3605 10.4807 83.9836 10.6207 84.4628 10.9007C84.956 11.1673 85.3327 11.5407 85.5928 12.0207C85.8529 12.5007 86.031 13.054 86.127 13.6807C86.2364 14.3073 86.2914 14.9807 86.2914 15.7007C86.2914 16.2073 86.2364 16.7607 86.127 17.3607C86.0173 17.9473 85.8255 18.514 85.5518 19.0607C85.2917 19.594 84.9218 20.034 84.4423 20.3807C83.9631 20.714 83.3468 20.8807 82.5935 20.8807ZM83.0043 19.3607C83.703 19.3607 84.2782 19.194 84.7301 18.8607C85.1956 18.5273 85.5381 18.0873 85.7572 17.5407C85.9763 16.9807 86.0857 16.3673 86.0857 15.7007C86.0857 14.9673 85.9694 14.3273 85.7367 13.7807C85.5176 13.2207 85.1751 12.7874 84.7096 12.4807C84.2574 12.1607 83.6893 12.0007 83.0043 12.0007C81.9772 12.0007 81.1829 12.354 80.6213 13.0607C80.0601 13.754 79.7791 14.634 79.7791 15.7007C79.7791 16.4073 79.9162 17.0407 80.1899 17.6007C80.4777 18.1473 80.8612 18.5807 81.3404 18.9007C81.8333 19.2073 82.3881 19.3607 83.0043 19.3607ZM86.0857 6.68066H87.7294V20.6807H86.2296C86.2022 20.3873 86.168 20.0407 86.127 19.6407C86.0997 19.2407 86.0857 18.9207 86.0857 18.6807V6.68066Z" fill="#FAD007"/>
<path d="M97.98 17.4607H99.5205C99.4111 18.114 99.1647 18.7007 98.7812 19.2207C98.4113 19.7274 97.9181 20.134 97.3018 20.4407C96.6992 20.734 96.0009 20.8807 95.2066 20.8807C94.2478 20.8807 93.3851 20.6607 92.6181 20.2207C91.8511 19.7674 91.2417 19.154 90.7898 18.3807C90.3517 17.594 90.1326 16.7007 90.1326 15.7007C90.1326 14.7007 90.3448 13.8073 90.7693 13.0207C91.2075 12.234 91.8033 11.614 92.5566 11.1607C93.3096 10.7074 94.159 10.4807 95.1037 10.4807C96.1035 10.4807 96.946 10.7007 97.6306 11.1407C98.3289 11.5674 98.8427 12.2007 99.1715 13.0407C99.5136 13.8673 99.6507 14.8873 99.5823 16.1007H91.7759C91.8443 16.754 92.0292 17.3273 92.3307 17.8207C92.6318 18.314 93.029 18.7007 93.5222 18.9807C94.0151 19.2473 94.5767 19.3807 95.2066 19.3807C95.9049 19.3807 96.4938 19.2073 96.9734 18.8607C97.4662 18.5007 97.8019 18.034 97.98 17.4607ZM95.1656 11.9807C94.3162 11.9807 93.6042 12.2207 93.029 12.7007C92.4537 13.1807 92.0702 13.834 91.8785 14.6607H97.8976C97.8429 13.7807 97.5483 13.114 97.0144 12.6607C96.4938 12.2073 95.8775 11.9807 95.1656 11.9807Z" fill="#FAD007"/>
<path d="M101.208 17.4607H102.728C102.769 18.034 102.989 18.5007 103.386 18.8607C103.797 19.2207 104.385 19.4007 105.152 19.4007C105.618 19.4007 105.981 19.3407 106.241 19.2207C106.515 19.1007 106.714 18.9407 106.837 18.7407C106.96 18.5273 107.022 18.294 107.022 18.0407C107.022 17.734 106.94 17.494 106.775 17.3207C106.625 17.134 106.412 16.9807 106.139 16.8607C105.878 16.7407 105.577 16.6273 105.235 16.5207C104.838 16.374 104.427 16.2207 104.002 16.0607C103.591 15.8873 103.201 15.6874 102.831 15.4607C102.475 15.2207 102.187 14.934 101.968 14.6007C101.749 14.254 101.64 13.8407 101.64 13.3607C101.64 12.9607 101.722 12.5874 101.886 12.2407C102.051 11.8807 102.283 11.574 102.585 11.3207C102.9 11.054 103.263 10.8473 103.674 10.7007C104.098 10.554 104.564 10.4807 105.07 10.4807C105.755 10.4807 106.33 10.614 106.796 10.8807C107.275 11.1473 107.638 11.5273 107.885 12.0207C108.145 12.5007 108.282 13.0607 108.296 13.7007H106.878C106.782 13.1007 106.584 12.6674 106.282 12.4007C105.995 12.1207 105.577 11.9807 105.029 11.9807C104.468 11.9807 104.036 12.1007 103.735 12.3407C103.434 12.5807 103.283 12.9007 103.283 13.3007C103.283 13.594 103.393 13.8407 103.612 14.0407C103.831 14.2273 104.112 14.4007 104.454 14.5607C104.81 14.7074 105.187 14.8607 105.584 15.0207C105.981 15.1807 106.364 15.3407 106.734 15.5007C107.104 15.6607 107.433 15.8473 107.72 16.0607C108.008 16.274 108.234 16.5407 108.398 16.8607C108.576 17.1673 108.666 17.554 108.666 18.0207C108.666 18.5807 108.528 19.0807 108.255 19.5207C107.994 19.9473 107.604 20.2807 107.084 20.5207C106.577 20.7607 105.954 20.8807 105.214 20.8807C104.543 20.8807 103.968 20.8007 103.489 20.6407C103.023 20.4673 102.633 20.2473 102.318 19.9807C102.003 19.7007 101.756 19.4073 101.578 19.1007C101.414 18.794 101.304 18.494 101.249 18.2007C101.194 17.9073 101.181 17.6607 101.208 17.4607Z" fill="#FAD007"/>
<path d="M111.807 6.68066C112.357 6.68066 112.803 7.11497 112.803 7.65068C112.803 8.18639 112.357 8.62067 111.807 8.62067H111.663C111.113 8.62067 110.666 8.18639 110.666 7.65068C110.666 7.11497 111.113 6.68066 111.663 6.68066H111.807ZM110.913 10.6807H112.556V20.6807H110.913V10.6807Z" fill="#FAD007"/>
<path d="M119.04 19.1007C118.315 19.1007 117.623 18.934 116.965 18.6007C116.322 18.254 115.794 17.7607 115.384 17.1207C114.986 16.4807 114.788 15.714 114.788 14.8207C114.788 13.9273 114.986 13.1607 115.384 12.5207C115.781 11.8673 116.301 11.3673 116.945 11.0207C117.589 10.6607 118.287 10.4807 119.04 10.4807C119.273 10.4807 119.492 10.5007 119.698 10.5407C119.917 10.5674 120.122 10.614 120.314 10.6807H124.484V12.4007C123.895 12.4007 123.306 12.294 122.718 12.0807C122.142 11.8673 121.649 11.6474 121.238 11.4207L121.156 11.3407C121.635 11.594 122.026 11.894 122.327 12.2407C122.642 12.5874 122.875 12.9807 123.026 13.4207C123.19 13.8473 123.272 14.314 123.272 14.8207C123.272 15.714 123.073 16.4807 122.676 17.1207C122.293 17.7607 121.779 18.254 121.136 18.6007C120.492 18.934 119.794 19.1007 119.04 19.1007ZM122.06 24.6807V24.2407C122.06 23.534 121.868 23.0207 121.485 22.7007C121.115 22.3807 120.554 22.2207 119.8 22.2207H117.746C117.294 22.2207 116.897 22.1807 116.555 22.1007C116.226 22.034 115.952 21.9273 115.733 21.7807C115.514 21.634 115.349 21.454 115.24 21.2407C115.13 21.0273 115.076 20.7873 115.076 20.5207C115.076 20.014 115.233 19.634 115.548 19.3807C115.863 19.114 116.253 18.9473 116.719 18.8807C117.185 18.814 117.63 18.814 118.054 18.8807L119.04 19.1007C118.301 19.1407 117.726 19.214 117.315 19.3207C116.918 19.4273 116.719 19.654 116.719 20.0007C116.719 20.2007 116.794 20.3673 116.945 20.5007C117.109 20.6207 117.349 20.6807 117.664 20.6807H119.8C120.513 20.6807 121.163 20.774 121.752 20.9607C122.341 21.1607 122.813 21.4873 123.17 21.9407C123.526 22.4073 123.703 23.0407 123.703 23.8407V24.6807H122.06ZM119.04 17.6007C119.492 17.6007 119.91 17.494 120.294 17.2807C120.69 17.0673 121.012 16.754 121.259 16.3407C121.506 15.9273 121.629 15.4207 121.629 14.8207C121.629 14.2207 121.506 13.714 121.259 13.3007C121.026 12.874 120.711 12.554 120.314 12.3407C119.917 12.114 119.492 12.0007 119.04 12.0007C118.588 12.0007 118.164 12.114 117.767 12.3407C117.369 12.554 117.048 12.8673 116.801 13.2807C116.555 13.694 116.431 14.2073 116.431 14.8207C116.431 15.4207 116.555 15.9273 116.801 16.3407C117.048 16.754 117.369 17.0673 117.767 17.2807C118.164 17.494 118.588 17.6007 119.04 17.6007Z" fill="#FAD007"/>
<path d="M126.417 10.6807H128.06V20.6807H126.417V10.6807ZM131.594 10.4807C132.142 10.4807 132.635 10.5607 133.073 10.7207C133.511 10.8807 133.881 11.114 134.182 11.4207C134.484 11.7274 134.716 12.1007 134.881 12.5407C135.045 12.9673 135.127 13.454 135.127 14.0007V20.6807H133.484V14.4007C133.484 13.6274 133.299 13.0473 132.929 12.6607C132.559 12.274 132.005 12.0807 131.265 12.0807C130.704 12.0807 130.183 12.2207 129.704 12.5007C129.225 12.7807 128.827 13.1673 128.512 13.6607C128.211 14.1407 128.026 14.7007 127.958 15.3407L127.937 14.1807C128.006 13.6207 128.142 13.114 128.348 12.6607C128.567 12.2073 128.834 11.8207 129.149 11.5007C129.478 11.1673 129.848 10.914 130.259 10.7407C130.683 10.5674 131.128 10.4807 131.594 10.4807Z" fill="#FAD007"/>
</svg>
