<svg width="18" height="18" viewBox="0 0 18 18" fill="none" xmlns="http://www.w3.org/2000/svg">
<path d="M9 0C13.9706 0 18 4.02944 18 9C18 13.9706 13.9706 18 9 18C4.02944 18 0 13.9706 0 9C0 4.02944 4.02944 0 9 0ZM12.8535 6.14648C12.6583 5.95122 12.3417 5.95122 12.1465 6.14648L7.5 10.793L5.85352 9.14648C5.65825 8.95122 5.34175 8.95122 5.14648 9.14648C4.95122 9.34175 4.95122 9.65825 5.14648 9.85352L6.93457 11.6416C6.97089 11.6779 7.02638 11.7343 7.08105 11.7783C7.14321 11.8283 7.24784 11.8994 7.39551 11.9229C7.4646 11.9338 7.5354 11.9338 7.60449 11.9229C7.75216 11.8994 7.85679 11.8283 7.91895 11.7783C7.97362 11.7343 8.02911 11.6779 8.06543 11.6416L12.8535 6.85352C13.0488 6.65825 13.0488 6.34175 12.8535 6.14648Z" fill="#39393B"/>
</svg>
