<svg width="116" height="32" viewBox="0 0 116 32" fill="none" xmlns="http://www.w3.org/2000/svg">
<g clip-path="url(#clip0_1_716)">
<path d="M0.650269 16.3053L16.7827 0.324707L21.7196 5.21515L5.58719 21.1957L0.650269 16.3053Z" fill="#FAD007"/>
<path d="M1.02255 26.7845L17.155 10.804L22.0919 15.6944L5.95947 31.675L1.02255 26.7845Z" fill="#FAD007"/>
<path d="M37.7267 14.9974C38.6827 14.9974 39.1607 14.6709 39.1607 14.018V11.7096C39.1607 11.0566 38.6827 10.7302 37.7267 10.7302H35.0334V14.9974H37.7267ZM31.6757 23.4268V8.77148H38.4262C39.5455 8.77148 40.5015 9.00466 41.2943 9.47102C42.1104 9.93739 42.5185 10.5786 42.5185 11.3948V14.3328C42.5185 15.149 42.1104 15.7902 41.2943 16.2566C40.5015 16.7229 39.5455 16.9562 38.4262 16.9562H35.0334V23.4268H31.6757Z" fill="#FAD007"/>
<path d="M51.0992 14.9624C52.0553 14.9624 52.5333 14.636 52.5333 13.9831V11.7096C52.5333 11.0566 52.0553 10.7302 51.0992 10.7302H48.406V14.9624H51.0992ZM51.8337 16.9211L56.6605 23.4268H53.1278L48.406 17.0611V23.4268H45.0482V8.77148H51.7988C52.918 8.77148 53.8741 9.00466 54.6669 9.47102C55.483 9.93739 55.891 10.5786 55.891 11.3948V14.2979C55.891 15.114 55.4947 15.7552 54.7018 16.2216C53.909 16.688 52.9531 16.9211 51.8337 16.9211Z" fill="#FAD007"/>
<path d="M64.2762 21.4682C65.2089 21.4682 65.6752 21.1417 65.6752 20.4888V11.7096C65.6752 11.0566 65.2089 10.7302 64.2762 10.7302H62.7371C61.7812 10.7302 61.3031 11.0566 61.3031 11.7096V20.4888C61.3031 21.1417 61.7812 21.4682 62.7371 21.4682H64.2762ZM57.9452 11.3948C57.9452 10.6019 58.3417 9.97236 59.1344 9.50601C59.9507 9.01633 60.93 8.77148 62.0726 8.77148H64.9407C66.7361 8.77148 67.9953 9.27283 68.7182 10.2755C68.9514 10.6019 69.0679 10.975 69.0679 11.3948V20.8035C69.0679 21.5963 68.6599 22.2376 67.8438 22.7272C67.0509 23.1937 66.0833 23.4268 64.9407 23.4268H62.0726C60.277 23.4268 59.0179 22.9256 58.2951 21.9228C58.0618 21.5963 57.9452 21.2232 57.9452 20.8035V11.3948Z" fill="#FAD007"/>
<path d="M81.802 23.4268H71.7635V8.77148H75.1214V21.4682H81.802V23.4268Z" fill="#FAD007"/>
<path d="M84.4649 23.4268V8.77148H87.8228V23.4268H84.4649Z" fill="#FAD007"/>
<path d="M90.4554 23.4268V8.77148H93.9181L99.1646 17.7256V8.80646H102.557V23.4268H99.0248L93.8132 14.6126V23.4268H90.4554Z" fill="#FAD007"/>
<path d="M115.441 23.4268H105.403V8.77148H115.441V10.7302H108.761V14.6476H114.007V16.6063H108.761V21.4682H115.441V23.4268Z" fill="#FAD007"/>
</g>
<defs>
<clipPath id="clip0_1_716">
<rect width="115.441" height="32" fill="white" transform="translate(0.325378)"/>
</clipPath>
</defs>
</svg>
