<svg width="99" height="32" viewBox="0 0 99 32" fill="none" xmlns="http://www.w3.org/2000/svg">
<path d="M10.6623 26.4265C9.42265 26.4265 8.25395 26.2052 7.15602 25.7624C6.07581 25.302 5.13727 24.6557 4.3404 23.8234C3.56123 22.9911 2.97686 22.0083 2.58728 20.8749L5.96071 19.3609C6.45653 20.4411 7.13831 21.2911 8.00601 21.9109C8.89145 22.5307 9.8654 22.8406 10.9279 22.8406C11.4945 22.8406 11.9815 22.752 12.3888 22.5749C12.7961 22.3979 13.1149 22.1588 13.3451 21.8578C13.5753 21.539 13.6904 21.1671 13.6904 20.7421C13.6904 20.2817 13.5487 19.8921 13.2653 19.5734C12.982 19.2369 12.5393 18.9713 11.9373 18.7766L8.05913 17.5015C6.4831 16.988 5.29664 16.2619 4.49977 15.3234C3.7029 14.3671 3.30446 13.225 3.30446 11.8969C3.30446 10.7281 3.5878 9.70103 4.15446 8.81559C4.73883 7.93021 5.54456 7.23959 6.57164 6.74375C7.61643 6.24792 8.81171 6 10.1576 6C11.344 6 12.4419 6.20365 13.4513 6.61094C14.4607 7.01821 15.3284 7.59377 16.0544 8.33751C16.7981 9.08125 17.356 9.97553 17.7279 11.0203L14.381 12.5344C14.0091 11.6135 13.4513 10.8964 12.7076 10.3828C11.9638 9.85156 11.1138 9.58596 10.1576 9.58596C9.60864 9.58596 9.12166 9.67447 8.69664 9.85156C8.27161 10.0286 7.94403 10.2854 7.71382 10.6219C7.48362 10.9406 7.36852 11.3125 7.36852 11.7375C7.36852 12.1979 7.51903 12.6052 7.82007 12.9593C8.12108 13.2958 8.57267 13.5614 9.17478 13.7562L12.9732 14.9781C14.5669 15.4916 15.7534 16.2088 16.5325 17.1296C17.3294 18.0505 17.7279 19.1749 17.7279 20.5031C17.7279 21.6541 17.4268 22.6812 16.8247 23.5843C16.2227 24.4697 15.3903 25.1692 14.3279 25.6827C13.2831 26.1786 12.0612 26.4265 10.6623 26.4265Z" fill="#FAD007"/>
<path d="M20.6619 26.1078V6.31885H24.779V26.1078H20.6619Z" fill="#FAD007"/>
<path d="M28.2882 26.1078V6.31885H32.4054V22.5219H49.7726V26.1078H28.2882Z" fill="#FAD007"/>
<path d="M55.1372 13.5735C55.1372 14.813 54.9159 16.9818 54.4731 18.0797C54.0127 19.1599 53.3663 20.0985 52.5341 20.8953C51.7018 21.6745 50.719 22.2589 49.5856 22.6484L48.0716 19.275C49.1518 18.7792 50.0018 18.0974 50.6216 17.2297C51.2414 16.3443 51.5512 14.3704 51.5512 13.3078C51.5512 12.7412 51.4627 12.2542 51.2856 11.8469C51.1086 11.4396 50.8695 11.1209 50.5685 10.8907C50.2497 10.6605 49.8778 10.5454 49.4528 10.5454C48.9924 10.5454 48.6028 10.687 48.2841 10.9704C47.9476 11.2537 47.682 11.6964 47.4872 12.2985L46.2122 16.1766C45.6987 17.7526 44.9726 18.9391 44.0341 19.736C43.0778 20.5329 41.9357 20.9313 40.6076 20.9313C39.4388 20.9313 38.4117 20.6479 37.5263 20.0813C36.6409 19.4969 35.9503 18.6912 35.4544 17.6641C34.9586 16.6193 34.7107 15.424 34.7107 14.0782C34.7107 12.8917 34.9143 11.7938 35.3216 10.7844C35.7289 9.77503 36.3045 8.90732 37.0482 8.1813C37.7919 7.43756 38.6862 6.87973 39.731 6.50789L41.2451 9.85477C40.3242 10.2266 39.6071 10.7844 39.0935 11.5282C38.5623 12.2719 38.2967 13.1219 38.2967 14.0782C38.2967 14.6271 38.3852 15.1141 38.5623 15.5391C38.7393 15.9641 38.9961 16.2917 39.3326 16.5219C39.6513 16.7521 40.0232 16.8672 40.4482 16.8672C40.9086 16.8672 41.3159 16.7167 41.67 16.4157C42.0065 16.1146 42.2721 15.663 42.4669 15.061L43.6888 11.2626C44.2023 9.66879 44.9195 8.48236 45.8403 7.70316C46.7612 6.9063 47.8856 6.50789 49.2138 6.50789C50.3648 6.50789 51.3919 6.80895 52.295 7.411C53.1804 8.01311 53.8799 8.84537 54.3934 9.90789C54.8893 10.9526 55.1372 12.1745 55.1372 13.5735Z" fill="#FAD007"/>
<path d="M57.0127 26.1078V6.31885H61.1299V26.1078H57.0127Z" fill="#FAD007"/>
<path d="M63.7107 26.2968V6.50781H67.8278V22.7109H76.1952V26.2968H63.7107Z" fill="#FAD007"/>
<path d="M77.7046 26.1078L84.3983 6.31885H89.8697L96.5635 26.1078H92.0745L90.7465 22.0703H83.4947L82.1667 26.1078H77.7046ZM84.6371 18.4844H89.6041L86.5763 9.13447H87.6918L84.6371 18.4844Z" fill="#FAD007"/>
</svg>
