<svg width="100" height="32" viewBox="0 0 100 32" fill="none" xmlns="http://www.w3.org/2000/svg">
<path fill-rule="evenodd" clip-rule="evenodd" d="M16.1774 4C16.6972 4 17.1186 4.42138 17.1186 4.94118V10.1176C17.1186 10.6374 16.6972 11.0588 16.1774 11.0588C15.6576 11.0588 15.2362 10.6374 15.2362 10.1176V4.94118C15.2362 4.42138 15.6576 4 16.1774 4ZM21.3539 4C21.8737 4 22.2951 4.42138 22.2951 4.94118V16.2353H17.1186V23.2941H20.8833V21.4118C20.8833 20.892 21.3047 20.4706 21.8245 20.4706C22.3443 20.4706 22.7657 20.892 22.7657 21.4118V27.0588C22.7657 27.5786 22.3443 28 21.8245 28C21.3047 28 20.8833 27.5786 20.8833 27.0588V25.1765H17.1186V27.0588C17.1186 27.5786 16.6972 28 16.1774 28C15.6576 28 15.2362 27.5786 15.2362 27.0588V14.3529H20.4127V4.94118C20.4127 4.42138 20.8341 4 21.3539 4ZM11.001 6.82353C11.5207 6.82353 11.9421 7.24491 11.9421 7.76471V24.2353C11.9421 24.7551 11.5207 25.1765 11.001 25.1765C10.4812 25.1765 10.0598 24.7551 10.0598 24.2353V12.4706H6.29507V16.2353C6.29507 16.7551 5.87369 17.1765 5.3539 17.1765C4.8341 17.1765 4.41272 16.7551 4.41272 16.2353V10.1176C4.41272 9.59785 4.8341 9.17647 5.3539 9.17647C5.87369 9.17647 6.29507 9.59785 6.29507 10.1176V10.5882H10.0598V7.76471C10.0598 7.24491 10.4812 6.82353 11.001 6.82353ZM27.4715 6.82353C27.9914 6.82353 28.4127 7.24491 28.4127 7.76471V11.5294H31.2363V10.1176C31.2363 9.59785 31.6576 9.17647 32.1774 9.17647C32.6972 9.17647 33.1186 9.59785 33.1186 10.1176V21.8824C33.1186 22.4022 32.6972 22.8235 32.1774 22.8235C31.6576 22.8235 31.2363 22.4022 31.2363 21.8824V20.9412H28.4127V23.2941C28.4127 23.8139 27.9914 24.2353 27.4715 24.2353C26.9517 24.2353 26.5304 23.8139 26.5304 23.2941V7.76471C26.5304 7.24491 26.9517 6.82353 27.4715 6.82353ZM28.4127 19.0588H31.2363V13.4118H28.4127V19.0588Z" fill="#FAD007"/>
<path d="M54.1111 22.3645H51.1441L48.5972 13.9362L46.1028 22.3645H43.1622L39.1186 9H42.0331L44.6062 17.4808L47.1006 9H50.0413L52.5881 17.4284L55.1087 9H58.0232L54.1111 22.3645Z" fill="#FAD007"/>
<path d="M59.1548 13.2272C59.2072 12.6671 59.3298 12.1332 59.5223 11.6256C59.7324 11.118 60.03 10.6717 60.4151 10.2866C60.8002 9.90146 61.2815 9.59514 61.8591 9.36758C62.4367 9.12252 63.102 9 63.8546 9H65.43C66.2177 9 66.9004 9.13127 67.478 9.39385C68.0732 9.65641 68.5633 10.0065 68.9484 10.4441C69.3335 10.8642 69.6223 11.3543 69.8148 11.9145C70.0075 12.457 70.1037 13.0084 70.1037 13.5687V22.3645H62.6468C62.0692 22.3645 61.5528 22.2595 61.0977 22.0494C60.6427 21.8218 60.2575 21.5331 59.9425 21.1829C59.6449 20.8154 59.4173 20.3865 59.2598 19.8964C59.1197 19.4063 59.0497 18.8812 59.0497 18.321C59.0497 17.7784 59.1284 17.2708 59.286 16.7982C59.4435 16.3256 59.6711 15.9229 59.9687 15.5903C60.2663 15.2403 60.6339 14.9689 61.0714 14.7764C61.5266 14.5663 62.0342 14.4613 62.5943 14.4613H67.0841V14.1988C67.0841 13.8837 67.0579 13.5949 67.0054 13.3324C66.9529 13.0522 66.8567 12.8159 66.7166 12.6234C66.5766 12.4308 66.3665 12.282 66.0865 12.177C65.8063 12.0544 65.43 11.9933 64.9574 11.9933H64.301C63.6008 11.9933 63.102 12.0983 62.8044 12.3084C62.5068 12.5008 62.3055 12.8072 62.2004 13.2272H59.1548ZM59.5223 18.321C59.5223 18.7762 61.9467 19.1175 62.1217 19.345C62.3143 19.5551 62.5244 19.6601 62.7518 19.6601H67.0841V16.982H62.7518C62.5244 16.982 62.3143 17.0957 62.1217 17.3232C61.9467 17.5508 59.5223 17.8834 59.5223 18.321Z" fill="#FAD007"/>
<path d="M78.4105 22.3645H75.4698L71.4263 9H74.3407L76.9139 17.4808L79.4083 9H82.349L78.4105 22.3645Z" fill="#FAD007"/>
<path d="M83.7201 13.7524C83.7201 13.1048 83.8426 12.5008 84.0877 11.9407C84.3327 11.3631 84.6566 10.8554 85.0591 10.4178C85.4617 9.98023 85.9256 9.6389 86.4508 9.39385C86.9758 9.13127 87.501 9 88.0262 9H91.0194C91.702 9 92.3059 9.14879 92.8311 9.44635C93.3737 9.72642 93.82 10.094 94.1702 10.5491C94.5377 10.9867 94.8178 11.4856 95.0103 12.0457C95.2204 12.5884 95.3254 13.1223 95.3254 13.6474V17.0345H86.8183V17.7434C86.8183 18.3736 86.9934 18.8199 87.3435 19.0825C87.6936 19.345 88.1574 19.4764 88.7351 19.4764H94.8527V22.417H88.0524C87.4573 22.417 86.8971 22.3032 86.372 22.0757C85.8468 21.8306 85.383 21.5068 84.9804 21.1042C84.5953 20.7016 84.2889 20.2202 84.0614 19.6601C83.8339 19.1 83.7201 18.4873 83.7201 17.8222V13.7524ZM86.8446 14.5401H89.5622L91.085 16.2106L92.2797 14.5401V14.4088C92.2797 13.7262 92.1047 13.166 91.7545 12.7284C91.4045 12.2733 90.9319 12.0457 90.3367 12.0457H88.7087C88.4287 12.0457 88.175 12.1157 87.9474 12.2558C87.7198 12.3783 87.5272 12.5447 87.3697 12.7546C87.2121 12.9647 87.0809 13.2185 86.9758 13.5161C86.8883 13.7961 86.8446 14.0937 86.8446 14.4088V14.5401Z" fill="#FAD007"/>
</svg>
