<svg width="18" height="22" viewBox="0 0 18 22" fill="none" xmlns="http://www.w3.org/2000/svg">
<path d="M14.7973 11.5804C14.8081 10.7457 15.0298 9.92732 15.4418 9.20136C15.8538 8.47541 16.4428 7.86547 17.1539 7.4283C16.7021 6.78314 16.1062 6.2522 15.4134 5.87765C14.7205 5.50309 13.9499 5.29525 13.1627 5.27062C11.4835 5.09436 9.85552 6.27545 8.99981 6.27545C8.12754 6.27545 6.81004 5.28812 5.39131 5.31731C4.47364 5.34696 3.57929 5.61381 2.79541 6.09187C2.01154 6.56993 1.36486 7.24289 0.918393 8.04518C-1.01561 11.3936 0.426982 16.3146 2.27959 19.0213C3.20649 20.3466 4.28977 21.8271 5.70722 21.7746C7.09428 21.717 7.61232 20.8901 9.28662 20.8901C10.9454 20.8901 11.4314 21.7746 12.8776 21.7412C14.366 21.717 15.3038 20.4099 16.1981 19.072C16.8641 18.1277 17.3766 17.084 17.7166 15.9795C16.8518 15.6138 16.1139 15.0016 15.5948 14.2193C15.0757 13.437 14.7983 12.5192 14.7973 11.5804Z" fill="white"/>
<path d="M12.0649 3.49062C12.8764 2.51641 13.2763 1.26423 13.1794 0C11.9396 0.13022 10.7943 0.722779 9.97186 1.65961C9.56971 2.11728 9.26172 2.64971 9.06547 3.22648C8.86923 3.80325 8.78858 4.41304 8.82815 5.021C9.44829 5.02739 10.0618 4.89297 10.6225 4.62788C11.1831 4.3628 11.6763 3.97395 12.0649 3.49062Z" fill="white"/>
</svg>
