<svg width="298" height="56" viewBox="0 0 298 56" fill="none" xmlns="http://www.w3.org/2000/svg">
<path opacity="0.2" fill-rule="evenodd" clip-rule="evenodd" d="M297.871 55.6408H0V38.7662C0 38.7662 1.10454 34.4951 12.5378 34.4951C23.971 34.4951 24.5359 33.7722 29.6932 31.6507C34.8505 29.5292 44.5455 32.5978 52.6145 31.6507C60.6835 30.7036 60.0469 25.2328 74.2808 25.7745C88.5148 26.3162 87.3863 19.5104 104.03 17.9845C120.674 16.4586 144.714 18.7566 153.969 15.2495C163.224 11.7425 169.027 8.79237 193.401 8.79237C217.775 8.79237 217.583 7.10366 236.704 2.10826C255.825 -2.88714 263.054 2.2453 275.529 4.68038C288.003 7.11545 297.871 0.903619 297.871 0.903619V55.6408Z" fill="#FFC6BE"/>
</svg>
