<svg width="100" height="25" viewBox="0 0 100 25" fill="none" xmlns="http://www.w3.org/2000/svg">
<path d="M14.7973 11.5804C14.8081 10.7457 15.0298 9.92732 15.4418 9.20136C15.8538 8.47541 16.4428 7.86547 17.1539 7.4283C16.7021 6.78314 16.1062 6.2522 15.4134 5.87765C14.7205 5.50309 13.9499 5.29525 13.1627 5.27062C11.4835 5.09436 9.85552 6.27545 8.99981 6.27545C8.12754 6.27545 6.81004 5.28812 5.39131 5.31731C4.47364 5.34696 3.57929 5.61381 2.79541 6.09187C2.01154 6.56993 1.36486 7.24289 0.918393 8.04518C-1.01561 11.3936 0.426982 16.3146 2.27959 19.0213C3.20649 20.3466 4.28977 21.8271 5.70722 21.7746C7.09428 21.717 7.61232 20.8901 9.28662 20.8901C10.9454 20.8901 11.4314 21.7746 12.8776 21.7412C14.366 21.717 15.3038 20.4099 16.1981 19.072C16.8641 18.1277 17.3766 17.084 17.7166 15.9795C16.8518 15.6138 16.1139 15.0016 15.5948 14.2193C15.0757 13.437 14.7983 12.5192 14.7973 11.5804Z" fill="white"/>
<path d="M12.0649 3.49062C12.8764 2.51641 13.2763 1.26423 13.1794 0C11.9396 0.13022 10.7943 0.722779 9.97186 1.65961C9.56971 2.11728 9.26172 2.64971 9.06547 3.22648C8.86923 3.80325 8.78858 4.41304 8.82815 5.021C9.44829 5.02739 10.0618 4.89297 10.6225 4.62788C11.1831 4.3628 11.6763 3.97395 12.0649 3.49062Z" fill="white"/>
<path d="M32.3301 18.4195H27.5967L26.46 21.7759H24.4551L28.9385 9.35791H31.0215L35.5049 21.7759H33.4658L32.3301 18.4195ZM28.0869 16.8706H31.8389L29.9893 11.4234H29.9375L28.0869 16.8706Z" fill="white"/>
<path d="M45.1866 17.2495C45.1866 20.063 43.6807 21.8706 41.4082 21.8706C40.8326 21.9007 40.2601 21.7681 39.7563 21.4879C39.2525 21.2078 38.8378 20.7915 38.5596 20.2866H38.5166V24.771H36.6582V12.7221H38.4571V14.228H38.4912C38.7822 13.7255 39.2039 13.3113 39.7116 13.0295C40.2192 12.7476 40.7937 12.6087 41.3741 12.6274C43.6719 12.6274 45.1866 14.4438 45.1866 17.2495ZM43.2764 17.2495C43.2764 15.4165 42.3291 14.2114 40.8838 14.2114C39.4639 14.2114 38.5088 15.4419 38.5088 17.2495C38.5088 19.0737 39.4639 20.2954 40.8838 20.2954C42.3291 20.2954 43.2764 19.0991 43.2764 17.2495Z" fill="white"/>
<path d="M55.1514 17.2495C55.1514 20.063 53.6455 21.8706 51.3731 21.8706C50.7974 21.9007 50.2249 21.7681 49.7211 21.4879C49.2173 21.2078 48.8026 20.7914 48.5244 20.2866H48.4814V24.7709H46.623V12.7221H48.4219V14.228H48.456C48.747 13.7255 49.1687 13.3113 49.6764 13.0295C50.184 12.7476 50.7585 12.6087 51.3389 12.6274C53.6367 12.6274 55.1514 14.4438 55.1514 17.2495ZM53.2412 17.2495C53.2412 15.4165 52.294 14.2114 50.8487 14.2114C49.4287 14.2114 48.4737 15.4419 48.4737 17.2495C48.4737 19.0737 49.4287 20.2954 50.8487 20.2954C52.294 20.2954 53.2412 19.0991 53.2412 17.2495H53.2412Z" fill="white"/>
<path d="M61.7383 18.316C61.876 19.5474 63.0723 20.356 64.7071 20.356C66.2735 20.356 67.4004 19.5474 67.4004 18.437C67.4004 17.4731 66.7207 16.896 65.1114 16.5005L63.502 16.1128C61.2217 15.562 60.1631 14.4956 60.1631 12.7651C60.1631 10.6226 62.0303 9.15088 64.6817 9.15088C67.3057 9.15088 69.1045 10.6226 69.1651 12.7651H67.2891C67.1768 11.5259 66.1524 10.7778 64.6553 10.7778C63.1582 10.7778 62.1338 11.5347 62.1338 12.6362C62.1338 13.5142 62.7881 14.0308 64.3887 14.4262L65.7568 14.7622C68.3047 15.3647 69.3633 16.3882 69.3633 18.2046C69.3633 20.5278 67.5127 21.9829 64.5693 21.9829C61.8154 21.9829 59.9561 20.562 59.8359 18.3159L61.7383 18.316Z" fill="white"/>
<path d="M73.375 10.5796V12.7222H75.0967V14.1938H73.375V19.1851C73.375 19.9604 73.7197 20.3218 74.4766 20.3218C74.6809 20.3182 74.885 20.3039 75.0879 20.2788V21.7417C74.7476 21.8052 74.4018 21.834 74.0557 21.8276C72.2227 21.8276 71.5078 21.1391 71.5078 19.3833V14.1938H70.1914V12.7222H71.5078V10.5796H73.375Z" fill="white"/>
<path d="M76.0938 17.2495C76.0938 14.4009 77.7715 12.6108 80.3877 12.6108C83.0127 12.6108 84.6826 14.4008 84.6826 17.2495C84.6826 20.106 83.0215 21.8882 80.3877 21.8882C77.7548 21.8882 76.0938 20.1059 76.0938 17.2495ZM82.7891 17.2495C82.7891 15.2954 81.8935 14.1421 80.3877 14.1421C78.8818 14.1421 77.9873 15.3042 77.9873 17.2495C77.9873 19.2114 78.8818 20.356 80.3877 20.356C81.8935 20.356 82.789 19.2114 82.789 17.2495H82.7891Z" fill="white"/>
<path d="M86.2129 12.7223H87.9854V14.2633H88.0284C88.1483 13.782 88.4302 13.3567 88.8268 13.0588C89.2234 12.7609 89.7105 12.6086 90.2061 12.6275C90.4203 12.6268 90.6338 12.6501 90.8428 12.6969V14.4352C90.5724 14.3526 90.2904 14.3146 90.0078 14.3229C89.7378 14.3119 89.4687 14.3595 89.2188 14.4624C88.969 14.5653 88.7444 14.721 88.5604 14.9189C88.3764 15.1168 88.2375 15.3522 88.153 15.6088C88.0686 15.8655 88.0407 16.1374 88.0713 16.4059V21.776H86.2129L86.2129 12.7223Z" fill="white"/>
<path d="M99.4131 19.1167C99.1631 20.7602 97.5625 21.8882 95.5146 21.8882C92.8809 21.8882 91.2461 20.1235 91.2461 17.2925C91.2461 14.4526 92.8896 12.6108 95.4365 12.6108C97.9414 12.6108 99.5166 14.3315 99.5166 17.0767V17.7134H93.1221V17.8257C93.0926 18.1589 93.1343 18.4945 93.2445 18.8104C93.3546 19.1262 93.5308 19.415 93.7611 19.6576C93.9915 19.9001 94.2708 20.0909 94.5805 20.2172C94.8903 20.3435 95.2233 20.4024 95.5576 20.3901C95.9968 20.4313 96.4375 20.3296 96.8142 20.1001C97.1909 19.8707 97.4835 19.5258 97.6484 19.1167L99.4131 19.1167ZM93.1309 16.4145H97.6572C97.6739 16.115 97.6285 15.8151 97.5238 15.5339C97.4191 15.2527 97.2575 14.9962 97.0489 14.7804C96.8404 14.5647 96.5895 14.3943 96.3121 14.2801C96.0346 14.1659 95.7365 14.1103 95.4365 14.1167C95.1339 14.1149 94.8339 14.173 94.5539 14.2878C94.2738 14.4025 94.0193 14.5716 93.8049 14.7852C93.5905 14.9989 93.4206 15.2528 93.3049 15.5325C93.1892 15.8121 93.1301 16.1119 93.1309 16.4146V16.4145Z" fill="white"/>
</svg>
