<svg width="94" height="20" viewBox="0 0 94 20" fill="none" xmlns="http://www.w3.org/2000/svg">
<path d="M6.99667 19.3151C5.68198 19.3151 4.49336 19.09 3.4308 18.6398C2.38625 18.1896 1.55782 17.5412 0.945496 16.6948C0.333175 15.8483 0.0180094 14.8488 0 13.6962H4.05213C4.10616 14.4706 4.3763 15.0829 4.86255 15.5332C5.36682 15.9834 6.05118 16.2085 6.91563 16.2085C7.7981 16.2085 8.49146 16.0014 8.99572 15.5872C9.49999 15.155 9.75212 14.5967 9.75212 13.9123C9.75212 13.354 9.58103 12.8948 9.23885 12.5346C8.89667 12.1744 8.46445 11.8952 7.94217 11.6971C7.43791 11.481 6.73554 11.2469 5.83506 10.9948C4.61042 10.6346 3.6109 10.2834 2.83649 9.94122C2.08009 9.58103 1.42275 9.04975 0.864454 8.34738C0.32417 7.62701 0.0540284 6.6725 0.0540284 5.48388C0.0540284 4.36729 0.333175 3.39478 0.891468 2.56635C1.44976 1.73791 2.23317 1.10758 3.2417 0.675354C4.25023 0.225118 5.40284 0 6.69952 0C8.64454 0 10.2204 0.47725 11.427 1.43175C12.6516 2.36824 13.327 3.68293 13.4531 5.37582H9.29288C9.25686 4.72748 8.97771 4.1962 8.45544 3.78199C7.95118 3.34976 7.27582 3.13365 6.42938 3.13365C5.69099 3.13365 5.09668 3.32274 4.64644 3.70094C4.21421 4.07914 3.9981 4.62843 3.9981 5.34881C3.9981 5.85307 4.16018 6.2763 4.48435 6.61847C4.82653 6.94265 5.24075 7.21279 5.72701 7.4289C6.23127 7.62701 6.93364 7.86113 7.83411 8.13127C9.05876 8.49146 10.0583 8.85165 10.8327 9.21184C11.6071 9.57203 12.2734 10.1123 12.8317 10.8327C13.39 11.5531 13.6692 12.4986 13.6692 13.6692C13.6692 14.6777 13.408 15.6142 12.8858 16.4787C12.3635 17.3431 11.5981 18.0365 10.5896 18.5587C9.58103 19.063 8.3834 19.3151 6.99667 19.3151Z" fill="#18063C"/>
<path d="M15.7054 11.5891C15.7054 10.0763 16.0025 8.73459 16.5968 7.56397C17.2092 6.39336 18.0286 5.49288 19.0551 4.86255C20.0997 4.23222 21.2613 3.91706 22.54 3.91706C23.6565 3.91706 24.6291 4.14217 25.4575 4.59241C26.3039 5.04265 26.9793 5.60995 27.4836 6.2943V4.16018H31.2926V19.126H27.4836V16.9379C26.9973 17.6403 26.3219 18.2256 25.4575 18.6938C24.611 19.1441 23.6295 19.3692 22.5129 19.3692C21.2523 19.3692 20.0997 19.045 19.0551 18.3967C18.0286 17.7483 17.2092 16.8388 16.5968 15.6682C16.0025 14.4796 15.7054 13.1199 15.7054 11.5891ZM27.4836 11.6431C27.4836 10.7246 27.3035 9.94122 26.9433 9.29288C26.5831 8.62653 26.0968 8.12226 25.4845 7.78009C24.8722 7.4199 24.2148 7.2398 23.5125 7.2398C22.8101 7.2398 22.1618 7.41089 21.5674 7.75307C20.9731 8.09525 20.4869 8.59952 20.1087 9.26587C19.7485 9.91421 19.5684 10.6886 19.5684 11.5891C19.5684 12.4896 19.7485 13.282 20.1087 13.9663C20.4869 14.6327 20.9731 15.146 21.5674 15.5061C22.1798 15.8663 22.8281 16.0464 23.5125 16.0464C24.2148 16.0464 24.8722 15.8753 25.4845 15.5332C26.0968 15.173 26.5831 14.6687 26.9433 14.0204C27.3035 13.354 27.4836 12.5616 27.4836 11.6431Z" fill="#18063C"/>
<path d="M33.7437 11.5891C33.7437 10.0763 34.0408 8.73459 34.6351 7.56397C35.2475 6.39336 36.0669 5.49288 37.0934 4.86255C38.138 4.23222 39.2996 3.91706 40.5783 3.91706C41.6948 3.91706 42.6674 4.14217 43.4958 4.59241C44.3422 5.04265 45.0176 5.60995 45.5219 6.2943V4.16018H49.3309V19.126H45.5219V16.9379C45.0356 17.6403 44.3602 18.2256 43.4958 18.6938C42.6493 19.1441 41.6678 19.3692 40.5512 19.3692C39.2906 19.3692 38.138 19.045 37.0934 18.3967C36.0669 17.7483 35.2475 16.8388 34.6351 15.6682C34.0408 14.4796 33.7437 13.1199 33.7437 11.5891ZM45.5219 11.6431C45.5219 10.7246 45.3418 9.94122 44.9816 9.29288C44.6214 8.62653 44.1351 8.12226 43.5228 7.78009C42.9105 7.4199 42.2531 7.2398 41.5508 7.2398C40.8484 7.2398 40.2001 7.41089 39.6058 7.75307C39.0114 8.09525 38.5252 8.59952 38.147 9.26587C37.7868 9.91421 37.6067 10.6886 37.6067 11.5891C37.6067 12.4896 37.7868 13.282 38.147 13.9663C38.5252 14.6327 39.0114 15.146 39.6058 15.5061C40.2181 15.8663 40.8664 16.0464 41.5508 16.0464C42.2531 16.0464 42.9105 15.8753 43.5228 15.5332C44.1351 15.173 44.6214 14.6687 44.9816 14.0204C45.3418 13.354 45.5219 12.5616 45.5219 11.6431Z" fill="#18063C"/>
<path d="M59.2649 19.3151C57.9502 19.3151 56.7616 19.09 55.699 18.6398C54.6545 18.1896 53.826 17.5412 53.2137 16.6948C52.6014 15.8483 52.2862 14.8488 52.2682 13.6962H56.3204C56.3744 14.4706 56.6445 15.0829 57.1308 15.5332C57.635 15.9834 58.3194 16.2085 59.1839 16.2085C60.0663 16.2085 60.7597 16.0014 61.264 15.5872C61.7682 15.155 62.0204 14.5967 62.0204 13.9123C62.0204 13.354 61.8493 12.8948 61.5071 12.5346C61.1649 12.1744 60.7327 11.8952 60.2104 11.6971C59.7061 11.481 59.0038 11.2469 58.1033 10.9948C56.8786 10.6346 55.8791 10.2834 55.1047 9.94122C54.3483 9.58103 53.691 9.04975 53.1327 8.34738C52.5924 7.62701 52.3223 6.6725 52.3223 5.48388C52.3223 4.36729 52.6014 3.39478 53.1597 2.56635C53.718 1.73791 54.5014 1.10758 55.5099 0.675354C56.5185 0.225118 57.6711 0 58.9677 0C60.9128 0 62.4886 0.47725 63.6952 1.43175C64.9199 2.36824 65.5952 3.68293 65.7213 5.37582H61.5611C61.5251 4.72748 61.2459 4.1962 60.7237 3.78199C60.2194 3.34976 59.544 3.13365 58.6976 3.13365C57.9592 3.13365 57.3649 3.32274 56.9147 3.70094C56.4824 4.07914 56.2663 4.62843 56.2663 5.34881C56.2663 5.85307 56.4284 6.2763 56.7526 6.61847C57.0948 6.94265 57.509 7.21279 57.9952 7.4289C58.4995 7.62701 59.2019 7.86113 60.1023 8.13127C61.327 8.49146 62.3265 8.85165 63.1009 9.21184C63.8753 9.57203 64.5417 10.1123 65.1 10.8327C65.6583 11.5531 65.9374 12.4986 65.9374 13.6692C65.9374 14.6777 65.6763 15.6142 65.154 16.4787C64.6317 17.3431 63.8663 18.0365 62.8578 18.5587C61.8493 19.063 60.6516 19.3151 59.2649 19.3151Z" fill="#18063C"/>
<path d="M73.3494 7.26682V14.5066C73.3494 15.0109 73.4665 15.3801 73.7006 15.6142C73.9527 15.8303 74.367 15.9384 74.9433 15.9384H76.6992V19.126H74.3219C71.1343 19.126 69.5404 17.5772 69.5404 14.4796V7.26682H67.7575V4.16018H69.5404V0.45924H73.3494V4.16018H76.6992V7.26682H73.3494Z" fill="#18063C"/>
<path d="M85.7947 19.3692C84.354 19.3692 83.0573 19.054 81.9047 18.4237C80.7521 17.7753 79.8426 16.8659 79.1763 15.6952C78.5279 14.5246 78.2037 13.1739 78.2037 11.6431C78.2037 10.1123 78.5369 8.7616 79.2033 7.59099C79.8876 6.42037 80.8151 5.5199 81.9857 4.88957C83.1563 4.24123 84.462 3.91706 85.9028 3.91706C87.3435 3.91706 88.6492 4.24123 89.8198 4.88957C90.9905 5.5199 91.9089 6.42037 92.5753 7.59099C93.2597 8.7616 93.6018 10.1123 93.6018 11.6431C93.6018 13.1739 93.2506 14.5246 92.5483 15.6952C91.8639 16.8659 90.9274 17.7753 89.7388 18.4237C88.5682 19.054 87.2535 19.3692 85.7947 19.3692ZM85.7947 16.0734C86.4791 16.0734 87.1184 15.9114 87.7127 15.5872C88.3251 15.245 88.8113 14.7407 89.1715 14.0744C89.5317 13.408 89.7118 12.5976 89.7118 11.6431C89.7118 10.2204 89.3336 9.13079 88.5772 8.3744C87.8388 7.59999 86.9293 7.21279 85.8488 7.21279C84.7682 7.21279 83.8587 7.59999 83.1203 8.3744C82.3999 9.13079 82.0398 10.2204 82.0398 11.6431C82.0398 13.0659 82.3909 14.1644 83.0933 14.9388C83.8137 15.6952 84.7142 16.0734 85.7947 16.0734Z" fill="#18063C"/>
</svg>
