<svg width="18" height="17" viewBox="0 0 18 17" fill="none" xmlns="http://www.w3.org/2000/svg">
<path fill-rule="evenodd" clip-rule="evenodd" d="M17.3465 10.1466V16.5524H13.6059V10.5674C13.6059 9.07111 13.0915 8.04243 11.7355 8.04243C10.7068 8.04243 10.099 8.74381 9.81843 9.39842C9.72492 9.63221 9.67816 9.95952 9.67816 10.2868V16.5524H5.9375C5.9375 16.5524 5.98426 6.40591 5.9375 5.37723H9.67816V6.967C9.67816 6.967 9.67816 7.01375 9.6314 7.01375H9.67816V6.967C10.1925 6.21887 11.0342 5.09668 13.0448 5.09668C15.4762 5.09668 17.3465 6.73321 17.3465 10.1466ZM2.10412 0C0.841646 0 0 0.841644 0 1.91708C0 2.99251 0.794889 3.83417 2.05736 3.83417H2.10412C3.41335 3.83417 4.20824 2.99252 4.20824 1.91708C4.16148 0.841644 3.36659 0 2.10412 0ZM0.1875 16.5524H3.88142V5.3772H0.1875V16.5524Z" fill="#18063C"/>
</svg>
