<svg width="18" height="15" viewBox="0 0 18 15" fill="none" xmlns="http://www.w3.org/2000/svg">
<path fill-rule="evenodd" clip-rule="evenodd" d="M17.3474 1.67349C16.6943 1.95922 16.0412 2.1633 15.3065 2.24493C16.0412 1.79595 16.6127 1.10206 16.8576 0.285718C16.1637 0.693888 15.3882 0.979606 14.6126 1.14287C13.9596 0.448984 13.0208 0 12.0003 0C10.0411 0 8.44921 1.59186 8.44921 3.55108C8.44921 3.8368 8.49003 4.12251 8.53084 4.36742C5.55117 4.20415 2.93886 2.81637 1.1837 0.653074C0.857165 1.18369 0.693896 1.79595 0.693896 2.44902C0.693896 3.67353 1.30616 4.77559 2.28578 5.42866C1.71433 5.42866 1.14289 5.26539 0.653078 4.97967V5.02048C0.653078 6.73481 1.8776 8.20421 3.5103 8.53074C3.22457 8.61238 2.89804 8.6532 2.5715 8.6532C2.32659 8.6532 2.12251 8.61238 1.91842 8.57157C2.36741 10.0002 3.67357 11.0206 5.26545 11.0614C4.04093 12.0002 2.53068 12.5716 0.857165 12.5716C0.571445 12.5716 0.285724 12.5716 0 12.5308C1.59188 13.5512 3.42866 14.1227 5.46954 14.1227C12.0411 14.1227 15.5923 8.69401 15.5923 4.00007C15.5923 3.8368 15.5923 3.67353 15.5923 3.55108C16.2862 3.02046 16.8984 2.36738 17.3474 1.67349Z" fill="#5BC17F"/>
</svg>
